# xmcd
#
# Track frame offsets:
#	150
#	48845
#	66842
#	73057
#	84352
#	94857
#	105097
#	111437
#	115088
#	116965
#	120753
#	122567
#	128042
#	153648
#	167722
#
# Disc length: 2561 seconds
#
# Revision: 1
# Processed by: cddbd v1.5.1PL0 Copyright (c) Steve Scherf et al.
# Submitted via: CDex 1.50Beta5
#
DISCID=c209ff0f
DTITLE=ベガルタ仙台サポーター and LAUGHIN' NOSE - Fuckin' Rock'n Roll SENDAI 2003
DYEAR=1900
DGENRE=
TTITLE0=SENDAI REMIX (DJ KAJITANI)
TTITLE1=COBRA and DENKOSEKKA
TTITLE2=VEGALTA OLE
TTITLE3=COUNTRY ROAD
TTITLE4=TWISTED
TTITLE5=TOY DOLLS
TTITLE6=FORZA SENDAI
TTITLE7=HISATO ALLEZ
TTITLE8=SILVINHO
TTITLE9=SENDAI LET'S GO
TTITLE10=LET'S GO, TERU
TTITLE11=YAMASHITA
TTITLE12=C'MON and TWISTED
TTITLE13=C'MON EVERUBODY C'MON (Laughin' Nose)
TTITLE14=GET THE GLORY (Laughin' Nose)
EXTD=
EXTT0=
EXTT1=
EXTT2=
EXTT3=
EXTT4=
EXTT5=
EXTT6=
EXTT7=
EXTT8=
EXTT9=
EXTT10=
EXTT11=
EXTT12=
EXTT13=
EXTT14=
PLAYORDER=
